<svg id="looser" enable-background="new 0 0 300 300" height="512" viewBox="0 0 300 300" width="512" xmlns="http://www.w3.org/2000/svg"><path d="m218.387 112c-3.698 0-7.138 1.124-10 3.044v-1.044c0-9.925-8.075-18-18-18-5.652 0-10.698 2.624-14 6.711-3.302-4.088-8.348-6.711-14-6.711-3.698 0-7.138 1.124-10 3.044v-45.044c0-9.925-8.075-18-18-18s-18 8.075-18 18v110.794l-19.485-23.815c-3.19-3.9-7.709-6.312-12.725-6.794-5.014-.482-9.911 1.027-13.785 4.248-7.4 6.152-8.953 16.829-3.612 24.834l58.514 87.702c5.444 8.159 14.549 13.03 24.357 13.03h42.367c24.465 0 44.368-19.903 44.368-44.368v-87.631-2c.001-9.925-8.074-18-17.999-18zm10 107.632c0 20.054-16.315 36.368-36.368 36.368h-42.367c-7.128 0-13.746-3.54-17.703-9.47l-58.514-87.702c-3.063-4.591-2.173-10.714 2.071-14.243 2.222-1.847 5.024-2.714 7.906-2.436 2.876.276 5.468 1.66 7.298 3.896l26.581 32.488c1.07 1.308 2.848 1.803 4.44 1.234 1.592-.568 2.655-2.076 2.655-3.767v-122c0-5.514 4.486-10 10-10s10 4.486 10 10v60 18 24c0 2.209 1.791 4 4 4s4-1.791 4-4v-24-18c0-5.514 4.486-10 10-10s10 4.486 10 10v42c0 2.209 1.791 4 4 4s4-1.791 4-4v-42c0-5.514 4.486-10 10-10s10 4.486 10 10v16 30c0 2.209 1.791 4 4 4s4-1.791 4-4v-30c0-5.514 4.486-10 10-10s10 4.486 10 10v2 87.632z"/></svg>